<mxfile host="app.diagrams.net" modified="2020-11-04T06:06:04.109Z" agent="5.0 (X11; Linux x86_64) AppleWebKit/537.36 (KHTML, like Gecko) Chrome/86.0.4240.183 Safari/537.36" etag="aeD_lBFbScabtCIEyetR" version="13.8.8" type="github">
  <diagram id="tMcQ2oyXICmmnyAeohTg" name="第 1 页">
    <mxGraphModel dx="2844" dy="1610" grid="1" gridSize="10" guides="1" tooltips="1" connect="1" arrows="1" fold="1" page="1" pageScale="1" pageWidth="827" pageHeight="1169" math="0" shadow="0">
      <root>
        <mxCell id="0" />
        <mxCell id="1" parent="0" />
        <mxCell id="VwapOLV4gGoB3jgHGufy-1" value="PC" style="rounded=0;whiteSpace=wrap;html=1;" parent="1" vertex="1">
          <mxGeometry x="134" y="1089" width="200" height="120" as="geometry" />
        </mxCell>
        <mxCell id="VwapOLV4gGoB3jgHGufy-2" value="" style="endArrow=none;html=1;entryX=0;entryY=0.25;entryDx=0;entryDy=0;" parent="1" target="VwapOLV4gGoB3jgHGufy-1" edge="1">
          <mxGeometry width="50" height="50" relative="1" as="geometry">
            <mxPoint x="94" y="1119" as="sourcePoint" />
            <mxPoint x="124" y="1119" as="targetPoint" />
          </mxGeometry>
        </mxCell>
        <mxCell id="VwapOLV4gGoB3jgHGufy-3" value="" style="endArrow=none;html=1;entryX=0;entryY=0.5;entryDx=0;entryDy=0;" parent="1" target="VwapOLV4gGoB3jgHGufy-1" edge="1">
          <mxGeometry width="50" height="50" relative="1" as="geometry">
            <mxPoint x="94" y="1149" as="sourcePoint" />
            <mxPoint x="134" y="1151.5" as="targetPoint" />
          </mxGeometry>
        </mxCell>
        <mxCell id="VwapOLV4gGoB3jgHGufy-4" value="" style="endArrow=none;html=1;entryX=0;entryY=0.75;entryDx=0;entryDy=0;" parent="1" target="VwapOLV4gGoB3jgHGufy-1" edge="1">
          <mxGeometry width="50" height="50" relative="1" as="geometry">
            <mxPoint x="94" y="1179" as="sourcePoint" />
            <mxPoint x="144" y="1161.5" as="targetPoint" />
          </mxGeometry>
        </mxCell>
        <mxCell id="VwapOLV4gGoB3jgHGufy-5" value="" style="endArrow=none;html=1;entryX=0.5;entryY=0;entryDx=0;entryDy=0;exitX=0.5;exitY=1;exitDx=0;exitDy=0;rounded=0;" parent="1" source="VwapOLV4gGoB3jgHGufy-1" target="VwapOLV4gGoB3jgHGufy-1" edge="1">
          <mxGeometry width="50" height="50" relative="1" as="geometry">
            <mxPoint x="114" y="1172" as="sourcePoint" />
            <mxPoint x="154" y="1171.5" as="targetPoint" />
            <Array as="points">
              <mxPoint x="234" y="1249" />
              <mxPoint x="374" y="1249" />
              <mxPoint x="374" y="1049" />
              <mxPoint x="234" y="1049" />
            </Array>
          </mxGeometry>
        </mxCell>
        <mxCell id="VwapOLV4gGoB3jgHGufy-6" value="" style="endArrow=none;html=1;entryX=0.5;entryY=1;entryDx=0;entryDy=0;exitX=0.5;exitY=0;exitDx=0;exitDy=0;" parent="1" source="VwapOLV4gGoB3jgHGufy-7" target="VwapOLV4gGoB3jgHGufy-1" edge="1">
          <mxGeometry width="50" height="50" relative="1" as="geometry">
            <mxPoint x="229" y="1329" as="sourcePoint" />
            <mxPoint x="234" y="1209" as="targetPoint" />
          </mxGeometry>
        </mxCell>
        <mxCell id="VwapOLV4gGoB3jgHGufy-7" value="IM" style="rounded=0;whiteSpace=wrap;html=1;" parent="1" vertex="1">
          <mxGeometry x="174" y="1329" width="120" height="80" as="geometry" />
        </mxCell>
        <mxCell id="VwapOLV4gGoB3jgHGufy-8" value="" style="endArrow=none;html=1;" parent="1" edge="1">
          <mxGeometry width="50" height="50" relative="1" as="geometry">
            <mxPoint x="234" y="1289" as="sourcePoint" />
            <mxPoint x="494" y="1289" as="targetPoint" />
          </mxGeometry>
        </mxCell>
        <mxCell id="VwapOLV4gGoB3jgHGufy-9" value="" style="endArrow=none;html=1;exitX=0.5;exitY=1;exitDx=0;exitDy=0;rounded=0;" parent="1" source="VwapOLV4gGoB3jgHGufy-7" edge="1">
          <mxGeometry width="50" height="50" relative="1" as="geometry">
            <mxPoint x="230" y="1391" as="sourcePoint" />
            <mxPoint x="494" y="1449" as="targetPoint" />
            <Array as="points">
              <mxPoint x="234" y="1449" />
            </Array>
          </mxGeometry>
        </mxCell>
        <mxCell id="VwapOLV4gGoB3jgHGufy-10" value="ID" style="rounded=0;whiteSpace=wrap;html=1;" parent="1" vertex="1">
          <mxGeometry x="800" y="40" width="600" height="880" as="geometry" />
        </mxCell>
        <mxCell id="VwapOLV4gGoB3jgHGufy-11" value="" style="endArrow=none;html=1;" parent="1" edge="1">
          <mxGeometry width="50" height="50" relative="1" as="geometry">
            <mxPoint x="1440" y="119.80000000000001" as="sourcePoint" />
            <mxPoint x="1400" y="119.80000000000001" as="targetPoint" />
          </mxGeometry>
        </mxCell>
        <mxCell id="VwapOLV4gGoB3jgHGufy-12" value="" style="endArrow=none;html=1;" parent="1" edge="1">
          <mxGeometry width="50" height="50" relative="1" as="geometry">
            <mxPoint x="1440" y="79.80000000000001" as="sourcePoint" />
            <mxPoint x="1400" y="79.80000000000001" as="targetPoint" />
          </mxGeometry>
        </mxCell>
        <mxCell id="VwapOLV4gGoB3jgHGufy-13" value="" style="endArrow=none;html=1;" parent="1" edge="1">
          <mxGeometry width="50" height="50" relative="1" as="geometry">
            <mxPoint x="1440" y="159.79999999999995" as="sourcePoint" />
            <mxPoint x="1400" y="159.79999999999995" as="targetPoint" />
          </mxGeometry>
        </mxCell>
        <mxCell id="VwapOLV4gGoB3jgHGufy-14" value="" style="endArrow=none;html=1;" parent="1" edge="1">
          <mxGeometry width="50" height="50" relative="1" as="geometry">
            <mxPoint x="1440" y="199.79999999999995" as="sourcePoint" />
            <mxPoint x="1400" y="199.79999999999995" as="targetPoint" />
          </mxGeometry>
        </mxCell>
        <mxCell id="VwapOLV4gGoB3jgHGufy-15" value="" style="endArrow=none;html=1;" parent="1" edge="1">
          <mxGeometry width="50" height="50" relative="1" as="geometry">
            <mxPoint x="1440" y="239.79999999999995" as="sourcePoint" />
            <mxPoint x="1400" y="239.79999999999995" as="targetPoint" />
          </mxGeometry>
        </mxCell>
        <mxCell id="VwapOLV4gGoB3jgHGufy-16" value="" style="endArrow=none;html=1;" parent="1" edge="1">
          <mxGeometry width="50" height="50" relative="1" as="geometry">
            <mxPoint x="1440" y="279.79999999999995" as="sourcePoint" />
            <mxPoint x="1400" y="279.79999999999995" as="targetPoint" />
          </mxGeometry>
        </mxCell>
        <mxCell id="VwapOLV4gGoB3jgHGufy-17" value="" style="endArrow=none;html=1;" parent="1" edge="1">
          <mxGeometry width="50" height="50" relative="1" as="geometry">
            <mxPoint x="1440" y="319.51" as="sourcePoint" />
            <mxPoint x="1400" y="319.51" as="targetPoint" />
          </mxGeometry>
        </mxCell>
        <mxCell id="VwapOLV4gGoB3jgHGufy-18" value="" style="endArrow=none;html=1;" parent="1" edge="1">
          <mxGeometry width="50" height="50" relative="1" as="geometry">
            <mxPoint x="1440" y="359.79999999999995" as="sourcePoint" />
            <mxPoint x="1400" y="359.79999999999995" as="targetPoint" />
          </mxGeometry>
        </mxCell>
        <mxCell id="VwapOLV4gGoB3jgHGufy-19" value="" style="endArrow=none;html=1;" parent="1" edge="1">
          <mxGeometry width="50" height="50" relative="1" as="geometry">
            <mxPoint x="1440" y="399.80000000000007" as="sourcePoint" />
            <mxPoint x="1400" y="399.80000000000007" as="targetPoint" />
          </mxGeometry>
        </mxCell>
        <mxCell id="VwapOLV4gGoB3jgHGufy-20" value="" style="endArrow=none;html=1;" parent="1" edge="1">
          <mxGeometry width="50" height="50" relative="1" as="geometry">
            <mxPoint x="1440" y="439.80000000000007" as="sourcePoint" />
            <mxPoint x="1400" y="439.80000000000007" as="targetPoint" />
          </mxGeometry>
        </mxCell>
        <mxCell id="VwapOLV4gGoB3jgHGufy-21" value="" style="endArrow=none;html=1;" parent="1" edge="1">
          <mxGeometry width="50" height="50" relative="1" as="geometry">
            <mxPoint x="1440" y="479.80000000000007" as="sourcePoint" />
            <mxPoint x="1400" y="479.80000000000007" as="targetPoint" />
          </mxGeometry>
        </mxCell>
        <mxCell id="VwapOLV4gGoB3jgHGufy-22" value="" style="endArrow=none;html=1;" parent="1" edge="1">
          <mxGeometry width="50" height="50" relative="1" as="geometry">
            <mxPoint x="1440" y="519.5100000000001" as="sourcePoint" />
            <mxPoint x="1400" y="519.5100000000001" as="targetPoint" />
          </mxGeometry>
        </mxCell>
        <mxCell id="VwapOLV4gGoB3jgHGufy-23" value="" style="endArrow=none;html=1;" parent="1" edge="1">
          <mxGeometry width="50" height="50" relative="1" as="geometry">
            <mxPoint x="1440" y="559.8000000000001" as="sourcePoint" />
            <mxPoint x="1400" y="559.8000000000001" as="targetPoint" />
          </mxGeometry>
        </mxCell>
        <mxCell id="VwapOLV4gGoB3jgHGufy-24" value="" style="endArrow=none;html=1;" parent="1" edge="1">
          <mxGeometry width="50" height="50" relative="1" as="geometry">
            <mxPoint x="1440" y="599.8000000000001" as="sourcePoint" />
            <mxPoint x="1400" y="599.8000000000001" as="targetPoint" />
          </mxGeometry>
        </mxCell>
        <mxCell id="VwapOLV4gGoB3jgHGufy-25" value="" style="endArrow=none;html=1;" parent="1" edge="1">
          <mxGeometry width="50" height="50" relative="1" as="geometry">
            <mxPoint x="1440" y="639.8000000000001" as="sourcePoint" />
            <mxPoint x="1400" y="639.8000000000001" as="targetPoint" />
          </mxGeometry>
        </mxCell>
        <mxCell id="VwapOLV4gGoB3jgHGufy-26" value="" style="endArrow=none;html=1;" parent="1" edge="1">
          <mxGeometry width="50" height="50" relative="1" as="geometry">
            <mxPoint x="1440" y="679.8000000000001" as="sourcePoint" />
            <mxPoint x="1400" y="679.8000000000001" as="targetPoint" />
          </mxGeometry>
        </mxCell>
        <mxCell id="VwapOLV4gGoB3jgHGufy-27" value="" style="endArrow=none;html=1;" parent="1" edge="1">
          <mxGeometry width="50" height="50" relative="1" as="geometry">
            <mxPoint x="1440" y="719.8000000000001" as="sourcePoint" />
            <mxPoint x="1400" y="719.8000000000001" as="targetPoint" />
          </mxGeometry>
        </mxCell>
        <mxCell id="VwapOLV4gGoB3jgHGufy-28" value="" style="endArrow=none;html=1;" parent="1" edge="1">
          <mxGeometry width="50" height="50" relative="1" as="geometry">
            <mxPoint x="1440" y="759.8000000000001" as="sourcePoint" />
            <mxPoint x="1400" y="759.8000000000001" as="targetPoint" />
          </mxGeometry>
        </mxCell>
        <mxCell id="VwapOLV4gGoB3jgHGufy-29" value="" style="endArrow=none;html=1;" parent="1" edge="1">
          <mxGeometry width="50" height="50" relative="1" as="geometry">
            <mxPoint x="1440" y="799.8000000000001" as="sourcePoint" />
            <mxPoint x="1400" y="799.8000000000001" as="targetPoint" />
          </mxGeometry>
        </mxCell>
        <mxCell id="VwapOLV4gGoB3jgHGufy-30" value="" style="endArrow=none;html=1;" parent="1" edge="1">
          <mxGeometry width="50" height="50" relative="1" as="geometry">
            <mxPoint x="1440" y="879.8000000000002" as="sourcePoint" />
            <mxPoint x="1400" y="879.8000000000002" as="targetPoint" />
          </mxGeometry>
        </mxCell>
        <mxCell id="VwapOLV4gGoB3jgHGufy-31" value="" style="endArrow=none;html=1;" parent="1" edge="1">
          <mxGeometry width="50" height="50" relative="1" as="geometry">
            <mxPoint x="1440" y="839.8000000000001" as="sourcePoint" />
            <mxPoint x="1400" y="839.8000000000001" as="targetPoint" />
          </mxGeometry>
        </mxCell>
        <mxCell id="VwapOLV4gGoB3jgHGufy-32" value="" style="endArrow=none;html=1;" parent="1" edge="1">
          <mxGeometry width="50" height="50" relative="1" as="geometry">
            <mxPoint x="800" y="80.00000000000011" as="sourcePoint" />
            <mxPoint x="760" y="80.00000000000011" as="targetPoint" />
          </mxGeometry>
        </mxCell>
        <mxCell id="VwapOLV4gGoB3jgHGufy-33" value="" style="endArrow=none;html=1;" parent="1" edge="1">
          <mxGeometry width="50" height="50" relative="1" as="geometry">
            <mxPoint x="800" y="120.00000000000011" as="sourcePoint" />
            <mxPoint x="760" y="120.00000000000011" as="targetPoint" />
          </mxGeometry>
        </mxCell>
        <mxCell id="VwapOLV4gGoB3jgHGufy-34" value="CU" style="rounded=0;whiteSpace=wrap;html=1;" parent="1" vertex="1">
          <mxGeometry x="840" y="960" width="200" height="560" as="geometry" />
        </mxCell>
        <mxCell id="VwapOLV4gGoB3jgHGufy-35" value="" style="endArrow=none;html=1;" parent="1" edge="1">
          <mxGeometry width="50" height="50" relative="1" as="geometry">
            <mxPoint x="1080" y="1000.0000000000002" as="sourcePoint" />
            <mxPoint x="1040" y="1000.0000000000002" as="targetPoint" />
          </mxGeometry>
        </mxCell>
        <mxCell id="VwapOLV4gGoB3jgHGufy-36" value="" style="endArrow=none;html=1;" parent="1" edge="1">
          <mxGeometry width="50" height="50" relative="1" as="geometry">
            <mxPoint x="840" y="1000.0000000000002" as="sourcePoint" />
            <mxPoint x="800" y="1000.0000000000002" as="targetPoint" />
          </mxGeometry>
        </mxCell>
        <mxCell id="VwapOLV4gGoB3jgHGufy-37" value="" style="endArrow=none;html=1;" parent="1" edge="1">
          <mxGeometry width="50" height="50" relative="1" as="geometry">
            <mxPoint x="840" y="1040.0000000000002" as="sourcePoint" />
            <mxPoint x="800" y="1040.0000000000002" as="targetPoint" />
          </mxGeometry>
        </mxCell>
        <mxCell id="VwapOLV4gGoB3jgHGufy-38" value="" style="endArrow=none;html=1;" parent="1" edge="1">
          <mxGeometry width="50" height="50" relative="1" as="geometry">
            <mxPoint x="840" y="1080.0000000000002" as="sourcePoint" />
            <mxPoint x="800" y="1080.0000000000002" as="targetPoint" />
          </mxGeometry>
        </mxCell>
        <mxCell id="VwapOLV4gGoB3jgHGufy-39" value="" style="endArrow=none;html=1;" parent="1" edge="1">
          <mxGeometry width="50" height="50" relative="1" as="geometry">
            <mxPoint x="1080" y="1040.0000000000002" as="sourcePoint" />
            <mxPoint x="1040" y="1040.0000000000002" as="targetPoint" />
          </mxGeometry>
        </mxCell>
        <mxCell id="VwapOLV4gGoB3jgHGufy-40" value="" style="endArrow=none;html=1;" parent="1" edge="1">
          <mxGeometry width="50" height="50" relative="1" as="geometry">
            <mxPoint x="1080" y="1080.0000000000002" as="sourcePoint" />
            <mxPoint x="1040" y="1080.0000000000002" as="targetPoint" />
          </mxGeometry>
        </mxCell>
        <mxCell id="VwapOLV4gGoB3jgHGufy-41" value="" style="endArrow=none;html=1;" parent="1" edge="1">
          <mxGeometry width="50" height="50" relative="1" as="geometry">
            <mxPoint x="1080" y="1120.0000000000002" as="sourcePoint" />
            <mxPoint x="1040" y="1120.0000000000002" as="targetPoint" />
          </mxGeometry>
        </mxCell>
        <mxCell id="VwapOLV4gGoB3jgHGufy-42" value="" style="endArrow=none;html=1;" parent="1" edge="1">
          <mxGeometry width="50" height="50" relative="1" as="geometry">
            <mxPoint x="1080" y="1159.7600000000002" as="sourcePoint" />
            <mxPoint x="1040" y="1159.7600000000002" as="targetPoint" />
          </mxGeometry>
        </mxCell>
        <mxCell id="VwapOLV4gGoB3jgHGufy-43" value="" style="endArrow=none;html=1;" parent="1" edge="1">
          <mxGeometry width="50" height="50" relative="1" as="geometry">
            <mxPoint x="1080" y="1200.0000000000002" as="sourcePoint" />
            <mxPoint x="1040" y="1200.0000000000002" as="targetPoint" />
          </mxGeometry>
        </mxCell>
        <mxCell id="VwapOLV4gGoB3jgHGufy-44" value="" style="endArrow=none;html=1;" parent="1" edge="1">
          <mxGeometry width="50" height="50" relative="1" as="geometry">
            <mxPoint x="1080" y="1240.0000000000002" as="sourcePoint" />
            <mxPoint x="1040" y="1240.0000000000002" as="targetPoint" />
          </mxGeometry>
        </mxCell>
        <mxCell id="VwapOLV4gGoB3jgHGufy-45" value="" style="endArrow=none;html=1;" parent="1" edge="1">
          <mxGeometry width="50" height="50" relative="1" as="geometry">
            <mxPoint x="1080" y="1280.0000000000002" as="sourcePoint" />
            <mxPoint x="1040" y="1280.0000000000002" as="targetPoint" />
          </mxGeometry>
        </mxCell>
        <mxCell id="VwapOLV4gGoB3jgHGufy-46" value="" style="endArrow=none;html=1;" parent="1" edge="1">
          <mxGeometry width="50" height="50" relative="1" as="geometry">
            <mxPoint x="1080" y="1320.0000000000002" as="sourcePoint" />
            <mxPoint x="1040" y="1320.0000000000002" as="targetPoint" />
          </mxGeometry>
        </mxCell>
        <mxCell id="VwapOLV4gGoB3jgHGufy-47" value="" style="endArrow=none;html=1;" parent="1" edge="1">
          <mxGeometry width="50" height="50" relative="1" as="geometry">
            <mxPoint x="1080" y="1360.0000000000002" as="sourcePoint" />
            <mxPoint x="1040" y="1360.0000000000002" as="targetPoint" />
          </mxGeometry>
        </mxCell>
        <mxCell id="VwapOLV4gGoB3jgHGufy-48" value="" style="endArrow=none;html=1;" parent="1" edge="1">
          <mxGeometry width="50" height="50" relative="1" as="geometry">
            <mxPoint x="1080" y="1400.0000000000002" as="sourcePoint" />
            <mxPoint x="1040" y="1400.0000000000002" as="targetPoint" />
          </mxGeometry>
        </mxCell>
        <mxCell id="VwapOLV4gGoB3jgHGufy-49" value="" style="endArrow=none;html=1;" parent="1" edge="1">
          <mxGeometry width="50" height="50" relative="1" as="geometry">
            <mxPoint x="1080" y="1440.0000000000002" as="sourcePoint" />
            <mxPoint x="1040" y="1440.0000000000002" as="targetPoint" />
          </mxGeometry>
        </mxCell>
        <mxCell id="VwapOLV4gGoB3jgHGufy-50" value="" style="endArrow=none;html=1;" parent="1" edge="1">
          <mxGeometry width="50" height="50" relative="1" as="geometry">
            <mxPoint x="1080" y="1480.0000000000002" as="sourcePoint" />
            <mxPoint x="1040" y="1480.0000000000002" as="targetPoint" />
          </mxGeometry>
        </mxCell>
        <mxCell id="VwapOLV4gGoB3jgHGufy-51" value="REG_WADDR_MUX" style="rounded=0;whiteSpace=wrap;html=1;" parent="1" vertex="1">
          <mxGeometry x="1320" y="1040" width="160" height="240" as="geometry" />
        </mxCell>
        <mxCell id="VwapOLV4gGoB3jgHGufy-52" value="" style="endArrow=none;html=1;" parent="1" edge="1">
          <mxGeometry width="50" height="50" relative="1" as="geometry">
            <mxPoint x="1320" y="1080.0000000000002" as="sourcePoint" />
            <mxPoint x="1280" y="1080.0000000000002" as="targetPoint" />
          </mxGeometry>
        </mxCell>
        <mxCell id="VwapOLV4gGoB3jgHGufy-53" value="" style="endArrow=none;html=1;" parent="1" edge="1">
          <mxGeometry width="50" height="50" relative="1" as="geometry">
            <mxPoint x="1320" y="1200.0000000000002" as="sourcePoint" />
            <mxPoint x="1280" y="1200.0000000000002" as="targetPoint" />
          </mxGeometry>
        </mxCell>
        <mxCell id="VwapOLV4gGoB3jgHGufy-54" value="" style="endArrow=none;html=1;" parent="1" edge="1">
          <mxGeometry width="50" height="50" relative="1" as="geometry">
            <mxPoint x="1320" y="1239.66" as="sourcePoint" />
            <mxPoint x="1280" y="1239.66" as="targetPoint" />
          </mxGeometry>
        </mxCell>
        <mxCell id="VwapOLV4gGoB3jgHGufy-55" value="" style="endArrow=none;html=1;" parent="1" edge="1">
          <mxGeometry width="50" height="50" relative="1" as="geometry">
            <mxPoint x="1320" y="1120.0000000000002" as="sourcePoint" />
            <mxPoint x="1280" y="1120.0000000000002" as="targetPoint" />
          </mxGeometry>
        </mxCell>
        <mxCell id="VwapOLV4gGoB3jgHGufy-56" value="" style="endArrow=none;html=1;" parent="1" edge="1">
          <mxGeometry width="50" height="50" relative="1" as="geometry">
            <mxPoint x="1520" y="1080.0000000000002" as="sourcePoint" />
            <mxPoint x="1480" y="1080.0000000000002" as="targetPoint" />
          </mxGeometry>
        </mxCell>
        <mxCell id="VwapOLV4gGoB3jgHGufy-57" value="ID_EXT" style="rounded=0;whiteSpace=wrap;html=1;" parent="1" vertex="1">
          <mxGeometry x="1320" y="1360" width="160" height="200" as="geometry" />
        </mxCell>
        <mxCell id="VwapOLV4gGoB3jgHGufy-58" value="" style="endArrow=none;html=1;" parent="1" edge="1">
          <mxGeometry width="50" height="50" relative="1" as="geometry">
            <mxPoint x="1320" y="1400" as="sourcePoint" />
            <mxPoint x="1280" y="1400" as="targetPoint" />
          </mxGeometry>
        </mxCell>
        <mxCell id="VwapOLV4gGoB3jgHGufy-59" value="" style="endArrow=none;html=1;" parent="1" edge="1">
          <mxGeometry width="50" height="50" relative="1" as="geometry">
            <mxPoint x="1320" y="1520" as="sourcePoint" />
            <mxPoint x="1280" y="1520" as="targetPoint" />
          </mxGeometry>
        </mxCell>
        <mxCell id="VwapOLV4gGoB3jgHGufy-60" value="" style="endArrow=none;html=1;" parent="1" edge="1">
          <mxGeometry width="50" height="50" relative="1" as="geometry">
            <mxPoint x="1320" y="1479.66" as="sourcePoint" />
            <mxPoint x="1280" y="1479.66" as="targetPoint" />
          </mxGeometry>
        </mxCell>
        <mxCell id="VwapOLV4gGoB3jgHGufy-61" value="" style="endArrow=none;html=1;" parent="1" edge="1">
          <mxGeometry width="50" height="50" relative="1" as="geometry">
            <mxPoint x="1520" y="1400" as="sourcePoint" />
            <mxPoint x="1480" y="1400" as="targetPoint" />
          </mxGeometry>
        </mxCell>
        <mxCell id="VwapOLV4gGoB3jgHGufy-62" value="RDATA_MUX" style="rounded=0;whiteSpace=wrap;html=1;" parent="1" vertex="1">
          <mxGeometry x="880" y="1560" width="200" height="320" as="geometry" />
        </mxCell>
        <mxCell id="VwapOLV4gGoB3jgHGufy-63" value="" style="endArrow=none;html=1;" parent="1" edge="1">
          <mxGeometry width="50" height="50" relative="1" as="geometry">
            <mxPoint x="880" y="1600" as="sourcePoint" />
            <mxPoint x="840" y="1600" as="targetPoint" />
          </mxGeometry>
        </mxCell>
        <mxCell id="VwapOLV4gGoB3jgHGufy-64" value="" style="endArrow=none;html=1;" parent="1" edge="1">
          <mxGeometry width="50" height="50" relative="1" as="geometry">
            <mxPoint x="880" y="1679.58" as="sourcePoint" />
            <mxPoint x="840" y="1679.58" as="targetPoint" />
          </mxGeometry>
        </mxCell>
        <mxCell id="VwapOLV4gGoB3jgHGufy-65" value="" style="endArrow=none;html=1;" parent="1" edge="1">
          <mxGeometry width="50" height="50" relative="1" as="geometry">
            <mxPoint x="880" y="1640" as="sourcePoint" />
            <mxPoint x="840" y="1640" as="targetPoint" />
          </mxGeometry>
        </mxCell>
        <mxCell id="VwapOLV4gGoB3jgHGufy-66" value="" style="endArrow=none;html=1;" parent="1" edge="1">
          <mxGeometry width="50" height="50" relative="1" as="geometry">
            <mxPoint x="1120" y="1599.71" as="sourcePoint" />
            <mxPoint x="1080" y="1599.71" as="targetPoint" />
          </mxGeometry>
        </mxCell>
        <mxCell id="VwapOLV4gGoB3jgHGufy-68" value="" style="endArrow=none;html=1;" parent="1" edge="1">
          <mxGeometry width="50" height="50" relative="1" as="geometry">
            <mxPoint x="880" y="1759.9999999999998" as="sourcePoint" />
            <mxPoint x="840" y="1759.9999999999998" as="targetPoint" />
          </mxGeometry>
        </mxCell>
        <mxCell id="VwapOLV4gGoB3jgHGufy-69" value="" style="endArrow=none;html=1;" parent="1" edge="1">
          <mxGeometry width="50" height="50" relative="1" as="geometry">
            <mxPoint x="880" y="1800" as="sourcePoint" />
            <mxPoint x="840" y="1800" as="targetPoint" />
          </mxGeometry>
        </mxCell>
        <mxCell id="VwapOLV4gGoB3jgHGufy-70" value="" style="endArrow=none;html=1;" parent="1" edge="1">
          <mxGeometry width="50" height="50" relative="1" as="geometry">
            <mxPoint x="880" y="1840" as="sourcePoint" />
            <mxPoint x="840" y="1840" as="targetPoint" />
          </mxGeometry>
        </mxCell>
        <mxCell id="VwapOLV4gGoB3jgHGufy-71" value="" style="endArrow=none;html=1;" parent="1" edge="1">
          <mxGeometry width="50" height="50" relative="1" as="geometry">
            <mxPoint x="1120" y="1639.71" as="sourcePoint" />
            <mxPoint x="1080" y="1639.71" as="targetPoint" />
          </mxGeometry>
        </mxCell>
        <mxCell id="VwapOLV4gGoB3jgHGufy-72" value="" style="endArrow=none;html=1;" parent="1" edge="1">
          <mxGeometry width="50" height="50" relative="1" as="geometry">
            <mxPoint x="1120" y="1679.71" as="sourcePoint" />
            <mxPoint x="1080" y="1679.71" as="targetPoint" />
          </mxGeometry>
        </mxCell>
        <mxCell id="VwapOLV4gGoB3jgHGufy-73" value="IF" style="rounded=0;whiteSpace=wrap;html=1;" parent="1" vertex="1">
          <mxGeometry x="80" y="280" width="280" height="160" as="geometry" />
        </mxCell>
        <mxCell id="VwapOLV4gGoB3jgHGufy-74" value="" style="endArrow=none;html=1;" parent="1" edge="1">
          <mxGeometry width="50" height="50" relative="1" as="geometry">
            <mxPoint x="80" y="320" as="sourcePoint" />
            <mxPoint x="40" y="320" as="targetPoint" />
          </mxGeometry>
        </mxCell>
        <mxCell id="VwapOLV4gGoB3jgHGufy-75" value="" style="endArrow=none;html=1;" parent="1" edge="1">
          <mxGeometry width="50" height="50" relative="1" as="geometry">
            <mxPoint x="80" y="399.579999999999" as="sourcePoint" />
            <mxPoint x="40" y="399.579999999999" as="targetPoint" />
          </mxGeometry>
        </mxCell>
        <mxCell id="VwapOLV4gGoB3jgHGufy-76" value="" style="endArrow=none;html=1;" parent="1" edge="1">
          <mxGeometry width="50" height="50" relative="1" as="geometry">
            <mxPoint x="80" y="360" as="sourcePoint" />
            <mxPoint x="40" y="360" as="targetPoint" />
          </mxGeometry>
        </mxCell>
        <mxCell id="VwapOLV4gGoB3jgHGufy-77" value="" style="endArrow=none;html=1;" parent="1" edge="1">
          <mxGeometry width="50" height="50" relative="1" as="geometry">
            <mxPoint x="400" y="320" as="sourcePoint" />
            <mxPoint x="360" y="320" as="targetPoint" />
          </mxGeometry>
        </mxCell>
        <mxCell id="VwapOLV4gGoB3jgHGufy-78" value="" style="endArrow=none;html=1;" parent="1" edge="1">
          <mxGeometry width="50" height="50" relative="1" as="geometry">
            <mxPoint x="400" y="360" as="sourcePoint" />
            <mxPoint x="360" y="360" as="targetPoint" />
          </mxGeometry>
        </mxCell>
        <mxCell id="VwapOLV4gGoB3jgHGufy-79" value="EX" style="rounded=0;whiteSpace=wrap;html=1;" parent="1" vertex="1">
          <mxGeometry x="1800" y="40" width="600" height="680" as="geometry" />
        </mxCell>
        <mxCell id="VwapOLV4gGoB3jgHGufy-80" value="" style="endArrow=none;html=1;" parent="1" edge="1">
          <mxGeometry width="50" height="50" relative="1" as="geometry">
            <mxPoint x="2440" y="119.83000000000015" as="sourcePoint" />
            <mxPoint x="2400" y="119.83000000000015" as="targetPoint" />
          </mxGeometry>
        </mxCell>
        <mxCell id="VwapOLV4gGoB3jgHGufy-81" value="" style="endArrow=none;html=1;" parent="1" edge="1">
          <mxGeometry width="50" height="50" relative="1" as="geometry">
            <mxPoint x="2440" y="79.83000000000018" as="sourcePoint" />
            <mxPoint x="2400" y="79.83000000000018" as="targetPoint" />
          </mxGeometry>
        </mxCell>
        <mxCell id="VwapOLV4gGoB3jgHGufy-82" value="" style="endArrow=none;html=1;" parent="1" edge="1">
          <mxGeometry width="50" height="50" relative="1" as="geometry">
            <mxPoint x="2440" y="159.83000000000015" as="sourcePoint" />
            <mxPoint x="2400" y="159.83000000000015" as="targetPoint" />
          </mxGeometry>
        </mxCell>
        <mxCell id="VwapOLV4gGoB3jgHGufy-83" value="" style="endArrow=none;html=1;" parent="1" edge="1">
          <mxGeometry width="50" height="50" relative="1" as="geometry">
            <mxPoint x="2440" y="199.83000000000015" as="sourcePoint" />
            <mxPoint x="2400" y="199.83000000000015" as="targetPoint" />
          </mxGeometry>
        </mxCell>
        <mxCell id="VwapOLV4gGoB3jgHGufy-84" value="" style="endArrow=none;html=1;" parent="1" edge="1">
          <mxGeometry width="50" height="50" relative="1" as="geometry">
            <mxPoint x="2440" y="239.83000000000015" as="sourcePoint" />
            <mxPoint x="2400" y="239.83000000000015" as="targetPoint" />
          </mxGeometry>
        </mxCell>
        <mxCell id="VwapOLV4gGoB3jgHGufy-85" value="" style="endArrow=none;html=1;" parent="1" edge="1">
          <mxGeometry width="50" height="50" relative="1" as="geometry">
            <mxPoint x="2440" y="279.83000000000015" as="sourcePoint" />
            <mxPoint x="2400" y="279.83000000000015" as="targetPoint" />
          </mxGeometry>
        </mxCell>
        <mxCell id="VwapOLV4gGoB3jgHGufy-86" value="" style="endArrow=none;html=1;" parent="1" edge="1">
          <mxGeometry width="50" height="50" relative="1" as="geometry">
            <mxPoint x="2440" y="319.5400000000002" as="sourcePoint" />
            <mxPoint x="2400" y="319.5400000000002" as="targetPoint" />
          </mxGeometry>
        </mxCell>
        <mxCell id="VwapOLV4gGoB3jgHGufy-87" value="" style="endArrow=none;html=1;" parent="1" edge="1">
          <mxGeometry width="50" height="50" relative="1" as="geometry">
            <mxPoint x="2440" y="359.83000000000015" as="sourcePoint" />
            <mxPoint x="2400" y="359.83000000000015" as="targetPoint" />
          </mxGeometry>
        </mxCell>
        <mxCell id="VwapOLV4gGoB3jgHGufy-88" value="" style="endArrow=none;html=1;" parent="1" edge="1">
          <mxGeometry width="50" height="50" relative="1" as="geometry">
            <mxPoint x="2440" y="399.83000000000015" as="sourcePoint" />
            <mxPoint x="2400" y="399.83000000000015" as="targetPoint" />
          </mxGeometry>
        </mxCell>
        <mxCell id="VwapOLV4gGoB3jgHGufy-89" value="" style="endArrow=none;html=1;" parent="1" edge="1">
          <mxGeometry width="50" height="50" relative="1" as="geometry">
            <mxPoint x="2440" y="439.83000000000015" as="sourcePoint" />
            <mxPoint x="2400" y="439.83000000000015" as="targetPoint" />
          </mxGeometry>
        </mxCell>
        <mxCell id="VwapOLV4gGoB3jgHGufy-90" value="" style="endArrow=none;html=1;" parent="1" edge="1">
          <mxGeometry width="50" height="50" relative="1" as="geometry">
            <mxPoint x="2440" y="479.83000000000015" as="sourcePoint" />
            <mxPoint x="2400" y="479.83000000000015" as="targetPoint" />
          </mxGeometry>
        </mxCell>
        <mxCell id="VwapOLV4gGoB3jgHGufy-91" value="" style="endArrow=none;html=1;" parent="1" edge="1">
          <mxGeometry width="50" height="50" relative="1" as="geometry">
            <mxPoint x="2440" y="519.5400000000002" as="sourcePoint" />
            <mxPoint x="2400" y="519.5400000000002" as="targetPoint" />
          </mxGeometry>
        </mxCell>
        <mxCell id="VwapOLV4gGoB3jgHGufy-92" value="" style="endArrow=none;html=1;" parent="1" edge="1">
          <mxGeometry width="50" height="50" relative="1" as="geometry">
            <mxPoint x="2440" y="559.8300000000002" as="sourcePoint" />
            <mxPoint x="2400" y="559.8300000000002" as="targetPoint" />
          </mxGeometry>
        </mxCell>
        <mxCell id="VwapOLV4gGoB3jgHGufy-93" value="" style="endArrow=none;html=1;" parent="1" edge="1">
          <mxGeometry width="50" height="50" relative="1" as="geometry">
            <mxPoint x="2440" y="599.8300000000002" as="sourcePoint" />
            <mxPoint x="2400" y="599.8300000000002" as="targetPoint" />
          </mxGeometry>
        </mxCell>
        <mxCell id="VwapOLV4gGoB3jgHGufy-94" value="" style="endArrow=none;html=1;" parent="1" edge="1">
          <mxGeometry width="50" height="50" relative="1" as="geometry">
            <mxPoint x="2440" y="639.8300000000002" as="sourcePoint" />
            <mxPoint x="2400" y="639.8300000000002" as="targetPoint" />
          </mxGeometry>
        </mxCell>
        <mxCell id="VwapOLV4gGoB3jgHGufy-95" value="" style="endArrow=none;html=1;" parent="1" edge="1">
          <mxGeometry width="50" height="50" relative="1" as="geometry">
            <mxPoint x="2440" y="679.8300000000002" as="sourcePoint" />
            <mxPoint x="2400" y="679.8300000000002" as="targetPoint" />
          </mxGeometry>
        </mxCell>
        <mxCell id="VwapOLV4gGoB3jgHGufy-96" value="" style="endArrow=none;html=1;" parent="1" edge="1">
          <mxGeometry width="50" height="50" relative="1" as="geometry">
            <mxPoint x="1800" y="119.71000000000015" as="sourcePoint" />
            <mxPoint x="1760" y="119.71000000000015" as="targetPoint" />
          </mxGeometry>
        </mxCell>
        <mxCell id="VwapOLV4gGoB3jgHGufy-97" value="" style="endArrow=none;html=1;" parent="1" edge="1">
          <mxGeometry width="50" height="50" relative="1" as="geometry">
            <mxPoint x="1800" y="79.71000000000018" as="sourcePoint" />
            <mxPoint x="1760" y="79.71000000000018" as="targetPoint" />
          </mxGeometry>
        </mxCell>
        <mxCell id="VwapOLV4gGoB3jgHGufy-98" value="" style="endArrow=none;html=1;" parent="1" edge="1">
          <mxGeometry width="50" height="50" relative="1" as="geometry">
            <mxPoint x="1800" y="159.71000000000015" as="sourcePoint" />
            <mxPoint x="1760" y="159.71000000000015" as="targetPoint" />
          </mxGeometry>
        </mxCell>
        <mxCell id="VwapOLV4gGoB3jgHGufy-99" value="" style="endArrow=none;html=1;" parent="1" edge="1">
          <mxGeometry width="50" height="50" relative="1" as="geometry">
            <mxPoint x="1800" y="199.71000000000015" as="sourcePoint" />
            <mxPoint x="1760" y="199.71000000000015" as="targetPoint" />
          </mxGeometry>
        </mxCell>
        <mxCell id="VwapOLV4gGoB3jgHGufy-100" value="" style="endArrow=none;html=1;" parent="1" edge="1">
          <mxGeometry width="50" height="50" relative="1" as="geometry">
            <mxPoint x="1800" y="239.71000000000015" as="sourcePoint" />
            <mxPoint x="1760" y="239.71000000000015" as="targetPoint" />
          </mxGeometry>
        </mxCell>
        <mxCell id="VwapOLV4gGoB3jgHGufy-101" value="" style="endArrow=none;html=1;" parent="1" edge="1">
          <mxGeometry width="50" height="50" relative="1" as="geometry">
            <mxPoint x="1800" y="279.71000000000015" as="sourcePoint" />
            <mxPoint x="1760" y="279.71000000000015" as="targetPoint" />
          </mxGeometry>
        </mxCell>
        <mxCell id="VwapOLV4gGoB3jgHGufy-102" value="" style="endArrow=none;html=1;" parent="1" edge="1">
          <mxGeometry width="50" height="50" relative="1" as="geometry">
            <mxPoint x="1800" y="319.4200000000002" as="sourcePoint" />
            <mxPoint x="1760" y="319.4200000000002" as="targetPoint" />
          </mxGeometry>
        </mxCell>
        <mxCell id="VwapOLV4gGoB3jgHGufy-103" value="" style="endArrow=none;html=1;" parent="1" edge="1">
          <mxGeometry width="50" height="50" relative="1" as="geometry">
            <mxPoint x="1800" y="359.71000000000015" as="sourcePoint" />
            <mxPoint x="1760" y="359.71000000000015" as="targetPoint" />
          </mxGeometry>
        </mxCell>
        <mxCell id="VwapOLV4gGoB3jgHGufy-104" value="" style="endArrow=none;html=1;" parent="1" edge="1">
          <mxGeometry width="50" height="50" relative="1" as="geometry">
            <mxPoint x="1800" y="399.71000000000015" as="sourcePoint" />
            <mxPoint x="1760" y="399.71000000000015" as="targetPoint" />
          </mxGeometry>
        </mxCell>
        <mxCell id="VwapOLV4gGoB3jgHGufy-105" value="" style="endArrow=none;html=1;" parent="1" edge="1">
          <mxGeometry width="50" height="50" relative="1" as="geometry">
            <mxPoint x="1800" y="439.71000000000026" as="sourcePoint" />
            <mxPoint x="1760" y="439.71000000000026" as="targetPoint" />
          </mxGeometry>
        </mxCell>
        <mxCell id="VwapOLV4gGoB3jgHGufy-106" value="" style="endArrow=none;html=1;" parent="1" edge="1">
          <mxGeometry width="50" height="50" relative="1" as="geometry">
            <mxPoint x="1800" y="479.71000000000026" as="sourcePoint" />
            <mxPoint x="1760" y="479.71000000000026" as="targetPoint" />
          </mxGeometry>
        </mxCell>
        <mxCell id="VwapOLV4gGoB3jgHGufy-107" value="" style="endArrow=none;html=1;" parent="1" edge="1">
          <mxGeometry width="50" height="50" relative="1" as="geometry">
            <mxPoint x="1800" y="519.4200000000005" as="sourcePoint" />
            <mxPoint x="1760" y="519.4200000000005" as="targetPoint" />
          </mxGeometry>
        </mxCell>
        <mxCell id="VwapOLV4gGoB3jgHGufy-108" value="" style="endArrow=none;html=1;" parent="1" edge="1">
          <mxGeometry width="50" height="50" relative="1" as="geometry">
            <mxPoint x="1800" y="559.7100000000005" as="sourcePoint" />
            <mxPoint x="1760" y="559.7100000000005" as="targetPoint" />
          </mxGeometry>
        </mxCell>
        <mxCell id="VwapOLV4gGoB3jgHGufy-109" value="" style="endArrow=none;html=1;" parent="1" edge="1">
          <mxGeometry width="50" height="50" relative="1" as="geometry">
            <mxPoint x="1800" y="599.9999999999999" as="sourcePoint" />
            <mxPoint x="1760" y="599.9999999999999" as="targetPoint" />
          </mxGeometry>
        </mxCell>
        <mxCell id="VwapOLV4gGoB3jgHGufy-110" value="" style="endArrow=none;html=1;" parent="1" edge="1">
          <mxGeometry width="50" height="50" relative="1" as="geometry">
            <mxPoint x="1800" y="639.9999999999999" as="sourcePoint" />
            <mxPoint x="1760" y="639.9999999999999" as="targetPoint" />
          </mxGeometry>
        </mxCell>
        <mxCell id="VwapOLV4gGoB3jgHGufy-111" value="DM" style="rounded=0;whiteSpace=wrap;html=1;" parent="1" vertex="1">
          <mxGeometry x="2720" y="720" width="160" height="160" as="geometry" />
        </mxCell>
        <mxCell id="VwapOLV4gGoB3jgHGufy-112" value="" style="endArrow=none;html=1;" parent="1" edge="1">
          <mxGeometry width="50" height="50" relative="1" as="geometry">
            <mxPoint x="2720" y="760" as="sourcePoint" />
            <mxPoint x="2680" y="760" as="targetPoint" />
          </mxGeometry>
        </mxCell>
        <mxCell id="VwapOLV4gGoB3jgHGufy-113" value="" style="endArrow=none;html=1;" parent="1" edge="1">
          <mxGeometry width="50" height="50" relative="1" as="geometry">
            <mxPoint x="2720" y="839.5800000000004" as="sourcePoint" />
            <mxPoint x="2680" y="839.5800000000004" as="targetPoint" />
          </mxGeometry>
        </mxCell>
        <mxCell id="VwapOLV4gGoB3jgHGufy-114" value="" style="endArrow=none;html=1;" parent="1" edge="1">
          <mxGeometry width="50" height="50" relative="1" as="geometry">
            <mxPoint x="2720" y="800" as="sourcePoint" />
            <mxPoint x="2680" y="800" as="targetPoint" />
          </mxGeometry>
        </mxCell>
        <mxCell id="VwapOLV4gGoB3jgHGufy-115" value="" style="endArrow=none;html=1;" parent="1" edge="1">
          <mxGeometry width="50" height="50" relative="1" as="geometry">
            <mxPoint x="2920" y="760" as="sourcePoint" />
            <mxPoint x="2880" y="760" as="targetPoint" />
          </mxGeometry>
        </mxCell>
        <mxCell id="VwapOLV4gGoB3jgHGufy-116" value="DIV" style="rounded=0;whiteSpace=wrap;html=1;" parent="1" vertex="1">
          <mxGeometry x="2161" y="840" width="160" height="160" as="geometry" />
        </mxCell>
        <mxCell id="VwapOLV4gGoB3jgHGufy-117" value="" style="endArrow=none;html=1;" parent="1" edge="1">
          <mxGeometry width="50" height="50" relative="1" as="geometry">
            <mxPoint x="2161" y="880" as="sourcePoint" />
            <mxPoint x="2121" y="880" as="targetPoint" />
          </mxGeometry>
        </mxCell>
        <mxCell id="VwapOLV4gGoB3jgHGufy-118" value="" style="endArrow=none;html=1;" parent="1" edge="1">
          <mxGeometry width="50" height="50" relative="1" as="geometry">
            <mxPoint x="2161" y="959.5800000000004" as="sourcePoint" />
            <mxPoint x="2121" y="959.5800000000004" as="targetPoint" />
          </mxGeometry>
        </mxCell>
        <mxCell id="VwapOLV4gGoB3jgHGufy-119" value="" style="endArrow=none;html=1;" parent="1" edge="1">
          <mxGeometry width="50" height="50" relative="1" as="geometry">
            <mxPoint x="2161" y="920" as="sourcePoint" />
            <mxPoint x="2121" y="920" as="targetPoint" />
          </mxGeometry>
        </mxCell>
        <mxCell id="VwapOLV4gGoB3jgHGufy-120" value="" style="endArrow=none;html=1;" parent="1" edge="1">
          <mxGeometry width="50" height="50" relative="1" as="geometry">
            <mxPoint x="2361" y="880" as="sourcePoint" />
            <mxPoint x="2321" y="880" as="targetPoint" />
          </mxGeometry>
        </mxCell>
        <mxCell id="VwapOLV4gGoB3jgHGufy-121" value="" style="endArrow=none;html=1;" parent="1" edge="1">
          <mxGeometry width="50" height="50" relative="1" as="geometry">
            <mxPoint x="2361" y="919.8" as="sourcePoint" />
            <mxPoint x="2321" y="919.8" as="targetPoint" />
          </mxGeometry>
        </mxCell>
        <mxCell id="VwapOLV4gGoB3jgHGufy-122" value="MULT" style="rounded=0;whiteSpace=wrap;html=1;" parent="1" vertex="1">
          <mxGeometry x="2161" y="1079" width="160" height="160" as="geometry" />
        </mxCell>
        <mxCell id="VwapOLV4gGoB3jgHGufy-123" value="" style="endArrow=none;html=1;" parent="1" edge="1">
          <mxGeometry width="50" height="50" relative="1" as="geometry">
            <mxPoint x="2161" y="1119" as="sourcePoint" />
            <mxPoint x="2121" y="1119" as="targetPoint" />
          </mxGeometry>
        </mxCell>
        <mxCell id="VwapOLV4gGoB3jgHGufy-124" value="" style="endArrow=none;html=1;" parent="1" edge="1">
          <mxGeometry width="50" height="50" relative="1" as="geometry">
            <mxPoint x="2161" y="1198.5800000000004" as="sourcePoint" />
            <mxPoint x="2121" y="1198.5800000000004" as="targetPoint" />
          </mxGeometry>
        </mxCell>
        <mxCell id="VwapOLV4gGoB3jgHGufy-125" value="" style="endArrow=none;html=1;" parent="1" edge="1">
          <mxGeometry width="50" height="50" relative="1" as="geometry">
            <mxPoint x="2161" y="1159" as="sourcePoint" />
            <mxPoint x="2121" y="1159" as="targetPoint" />
          </mxGeometry>
        </mxCell>
        <mxCell id="VwapOLV4gGoB3jgHGufy-126" value="" style="endArrow=none;html=1;" parent="1" edge="1">
          <mxGeometry width="50" height="50" relative="1" as="geometry">
            <mxPoint x="2361" y="1119" as="sourcePoint" />
            <mxPoint x="2321" y="1119" as="targetPoint" />
          </mxGeometry>
        </mxCell>
        <mxCell id="VwapOLV4gGoB3jgHGufy-127" value="" style="endArrow=none;html=1;" parent="1" edge="1">
          <mxGeometry width="50" height="50" relative="1" as="geometry">
            <mxPoint x="2361" y="1158.8000000000002" as="sourcePoint" />
            <mxPoint x="2321" y="1158.8000000000002" as="targetPoint" />
          </mxGeometry>
        </mxCell>
        <mxCell id="VwapOLV4gGoB3jgHGufy-128" value="EX_BRANCH" style="rounded=0;whiteSpace=wrap;html=1;" parent="1" vertex="1">
          <mxGeometry x="1800" y="1200" width="200" height="200" as="geometry" />
        </mxCell>
        <mxCell id="VwapOLV4gGoB3jgHGufy-129" value="" style="endArrow=none;html=1;" parent="1" edge="1">
          <mxGeometry width="50" height="50" relative="1" as="geometry">
            <mxPoint x="1800" y="1240" as="sourcePoint" />
            <mxPoint x="1760" y="1240" as="targetPoint" />
          </mxGeometry>
        </mxCell>
        <mxCell id="VwapOLV4gGoB3jgHGufy-130" value="" style="endArrow=none;html=1;" parent="1" edge="1">
          <mxGeometry width="50" height="50" relative="1" as="geometry">
            <mxPoint x="1800" y="1319.5800000000004" as="sourcePoint" />
            <mxPoint x="1760" y="1319.5800000000004" as="targetPoint" />
          </mxGeometry>
        </mxCell>
        <mxCell id="VwapOLV4gGoB3jgHGufy-131" value="" style="endArrow=none;html=1;" parent="1" edge="1">
          <mxGeometry width="50" height="50" relative="1" as="geometry">
            <mxPoint x="1800" y="1280" as="sourcePoint" />
            <mxPoint x="1760" y="1280" as="targetPoint" />
          </mxGeometry>
        </mxCell>
        <mxCell id="VwapOLV4gGoB3jgHGufy-132" value="" style="endArrow=none;html=1;" parent="1" edge="1">
          <mxGeometry width="50" height="50" relative="1" as="geometry">
            <mxPoint x="2040" y="1239.76" as="sourcePoint" />
            <mxPoint x="2000" y="1239.76" as="targetPoint" />
          </mxGeometry>
        </mxCell>
        <mxCell id="VwapOLV4gGoB3jgHGufy-133" value="" style="endArrow=none;html=1;" parent="1" edge="1">
          <mxGeometry width="50" height="50" relative="1" as="geometry">
            <mxPoint x="2040" y="1279.5600000000002" as="sourcePoint" />
            <mxPoint x="2000" y="1279.5600000000002" as="targetPoint" />
          </mxGeometry>
        </mxCell>
        <mxCell id="VwapOLV4gGoB3jgHGufy-134" value="" style="endArrow=none;html=1;" parent="1" edge="1">
          <mxGeometry width="50" height="50" relative="1" as="geometry">
            <mxPoint x="1800" y="1360.0000000000005" as="sourcePoint" />
            <mxPoint x="1760" y="1360.0000000000005" as="targetPoint" />
          </mxGeometry>
        </mxCell>
        <mxCell id="VwapOLV4gGoB3jgHGufy-135" value="" style="endArrow=none;html=1;" parent="1" edge="1">
          <mxGeometry width="50" height="50" relative="1" as="geometry">
            <mxPoint x="2040" y="1358.7600000000004" as="sourcePoint" />
            <mxPoint x="2000" y="1358.7600000000004" as="targetPoint" />
          </mxGeometry>
        </mxCell>
        <mxCell id="VwapOLV4gGoB3jgHGufy-136" value="EX" style="rounded=0;whiteSpace=wrap;html=1;" parent="1" vertex="1">
          <mxGeometry x="2720" y="40" width="600" height="600" as="geometry" />
        </mxCell>
        <mxCell id="VwapOLV4gGoB3jgHGufy-137" value="" style="endArrow=none;html=1;" parent="1" edge="1">
          <mxGeometry width="50" height="50" relative="1" as="geometry">
            <mxPoint x="3360" y="119.83000000000015" as="sourcePoint" />
            <mxPoint x="3320" y="119.83000000000015" as="targetPoint" />
          </mxGeometry>
        </mxCell>
        <mxCell id="VwapOLV4gGoB3jgHGufy-138" value="" style="endArrow=none;html=1;" parent="1" edge="1">
          <mxGeometry width="50" height="50" relative="1" as="geometry">
            <mxPoint x="3360" y="79.83000000000015" as="sourcePoint" />
            <mxPoint x="3320" y="79.83000000000015" as="targetPoint" />
          </mxGeometry>
        </mxCell>
        <mxCell id="VwapOLV4gGoB3jgHGufy-139" value="" style="endArrow=none;html=1;" parent="1" edge="1">
          <mxGeometry width="50" height="50" relative="1" as="geometry">
            <mxPoint x="3360" y="159.83000000000015" as="sourcePoint" />
            <mxPoint x="3320" y="159.83000000000015" as="targetPoint" />
          </mxGeometry>
        </mxCell>
        <mxCell id="VwapOLV4gGoB3jgHGufy-140" value="" style="endArrow=none;html=1;" parent="1" edge="1">
          <mxGeometry width="50" height="50" relative="1" as="geometry">
            <mxPoint x="3360" y="199.83000000000015" as="sourcePoint" />
            <mxPoint x="3320" y="199.83000000000015" as="targetPoint" />
          </mxGeometry>
        </mxCell>
        <mxCell id="VwapOLV4gGoB3jgHGufy-141" value="" style="endArrow=none;html=1;" parent="1" edge="1">
          <mxGeometry width="50" height="50" relative="1" as="geometry">
            <mxPoint x="3360" y="239.83000000000015" as="sourcePoint" />
            <mxPoint x="3320" y="239.83000000000015" as="targetPoint" />
          </mxGeometry>
        </mxCell>
        <mxCell id="VwapOLV4gGoB3jgHGufy-142" value="" style="endArrow=none;html=1;" parent="1" edge="1">
          <mxGeometry width="50" height="50" relative="1" as="geometry">
            <mxPoint x="3360" y="279.83000000000015" as="sourcePoint" />
            <mxPoint x="3320" y="279.83000000000015" as="targetPoint" />
          </mxGeometry>
        </mxCell>
        <mxCell id="VwapOLV4gGoB3jgHGufy-143" value="" style="endArrow=none;html=1;" parent="1" edge="1">
          <mxGeometry width="50" height="50" relative="1" as="geometry">
            <mxPoint x="3360" y="319.5400000000002" as="sourcePoint" />
            <mxPoint x="3320" y="319.5400000000002" as="targetPoint" />
          </mxGeometry>
        </mxCell>
        <mxCell id="VwapOLV4gGoB3jgHGufy-144" value="" style="endArrow=none;html=1;" parent="1" edge="1">
          <mxGeometry width="50" height="50" relative="1" as="geometry">
            <mxPoint x="3360" y="359.83000000000015" as="sourcePoint" />
            <mxPoint x="3320" y="359.83000000000015" as="targetPoint" />
          </mxGeometry>
        </mxCell>
        <mxCell id="VwapOLV4gGoB3jgHGufy-145" value="" style="endArrow=none;html=1;" parent="1" edge="1">
          <mxGeometry width="50" height="50" relative="1" as="geometry">
            <mxPoint x="3360" y="399.8299999999999" as="sourcePoint" />
            <mxPoint x="3320" y="399.8299999999999" as="targetPoint" />
          </mxGeometry>
        </mxCell>
        <mxCell id="VwapOLV4gGoB3jgHGufy-153" value="" style="endArrow=none;html=1;" parent="1" edge="1">
          <mxGeometry width="50" height="50" relative="1" as="geometry">
            <mxPoint x="2720" y="119.71000000000004" as="sourcePoint" />
            <mxPoint x="2680" y="119.71000000000004" as="targetPoint" />
          </mxGeometry>
        </mxCell>
        <mxCell id="VwapOLV4gGoB3jgHGufy-154" value="" style="endArrow=none;html=1;" parent="1" edge="1">
          <mxGeometry width="50" height="50" relative="1" as="geometry">
            <mxPoint x="2720" y="79.71000000000026" as="sourcePoint" />
            <mxPoint x="2680" y="79.71000000000026" as="targetPoint" />
          </mxGeometry>
        </mxCell>
        <mxCell id="VwapOLV4gGoB3jgHGufy-155" value="" style="endArrow=none;html=1;" parent="1" edge="1">
          <mxGeometry width="50" height="50" relative="1" as="geometry">
            <mxPoint x="2720" y="159.71000000000004" as="sourcePoint" />
            <mxPoint x="2680" y="159.71000000000004" as="targetPoint" />
          </mxGeometry>
        </mxCell>
        <mxCell id="VwapOLV4gGoB3jgHGufy-156" value="" style="endArrow=none;html=1;" parent="1" edge="1">
          <mxGeometry width="50" height="50" relative="1" as="geometry">
            <mxPoint x="2720" y="199.71000000000004" as="sourcePoint" />
            <mxPoint x="2680" y="199.71000000000004" as="targetPoint" />
          </mxGeometry>
        </mxCell>
        <mxCell id="VwapOLV4gGoB3jgHGufy-157" value="" style="endArrow=none;html=1;" parent="1" edge="1">
          <mxGeometry width="50" height="50" relative="1" as="geometry">
            <mxPoint x="2720" y="239.71000000000004" as="sourcePoint" />
            <mxPoint x="2680" y="239.71000000000004" as="targetPoint" />
          </mxGeometry>
        </mxCell>
        <mxCell id="VwapOLV4gGoB3jgHGufy-158" value="" style="endArrow=none;html=1;" parent="1" edge="1">
          <mxGeometry width="50" height="50" relative="1" as="geometry">
            <mxPoint x="2720" y="279.71000000000004" as="sourcePoint" />
            <mxPoint x="2680" y="279.71000000000004" as="targetPoint" />
          </mxGeometry>
        </mxCell>
        <mxCell id="VwapOLV4gGoB3jgHGufy-159" value="" style="endArrow=none;html=1;" parent="1" edge="1">
          <mxGeometry width="50" height="50" relative="1" as="geometry">
            <mxPoint x="2720" y="319.4200000000001" as="sourcePoint" />
            <mxPoint x="2680" y="319.4200000000001" as="targetPoint" />
          </mxGeometry>
        </mxCell>
        <mxCell id="VwapOLV4gGoB3jgHGufy-160" value="" style="endArrow=none;html=1;" parent="1" edge="1">
          <mxGeometry width="50" height="50" relative="1" as="geometry">
            <mxPoint x="2720" y="359.71000000000004" as="sourcePoint" />
            <mxPoint x="2680" y="359.71000000000004" as="targetPoint" />
          </mxGeometry>
        </mxCell>
        <mxCell id="VwapOLV4gGoB3jgHGufy-161" value="" style="endArrow=none;html=1;" parent="1" edge="1">
          <mxGeometry width="50" height="50" relative="1" as="geometry">
            <mxPoint x="2720" y="399.71000000000026" as="sourcePoint" />
            <mxPoint x="2680" y="399.71000000000026" as="targetPoint" />
          </mxGeometry>
        </mxCell>
        <mxCell id="VwapOLV4gGoB3jgHGufy-162" value="" style="endArrow=none;html=1;" parent="1" edge="1">
          <mxGeometry width="50" height="50" relative="1" as="geometry">
            <mxPoint x="2720" y="439.71000000000026" as="sourcePoint" />
            <mxPoint x="2680" y="439.71000000000026" as="targetPoint" />
          </mxGeometry>
        </mxCell>
        <mxCell id="VwapOLV4gGoB3jgHGufy-163" value="" style="endArrow=none;html=1;" parent="1" edge="1">
          <mxGeometry width="50" height="50" relative="1" as="geometry">
            <mxPoint x="2720" y="479.71000000000026" as="sourcePoint" />
            <mxPoint x="2680" y="479.71000000000026" as="targetPoint" />
          </mxGeometry>
        </mxCell>
        <mxCell id="VwapOLV4gGoB3jgHGufy-164" value="" style="endArrow=none;html=1;" parent="1" edge="1">
          <mxGeometry width="50" height="50" relative="1" as="geometry">
            <mxPoint x="2720" y="519.4200000000005" as="sourcePoint" />
            <mxPoint x="2680" y="519.4200000000005" as="targetPoint" />
          </mxGeometry>
        </mxCell>
        <mxCell id="VwapOLV4gGoB3jgHGufy-165" value="" style="endArrow=none;html=1;" parent="1" edge="1">
          <mxGeometry width="50" height="50" relative="1" as="geometry">
            <mxPoint x="2720" y="559.7100000000005" as="sourcePoint" />
            <mxPoint x="2680" y="559.7100000000005" as="targetPoint" />
          </mxGeometry>
        </mxCell>
        <mxCell id="VwapOLV4gGoB3jgHGufy-166" value="" style="endArrow=none;html=1;" parent="1" edge="1">
          <mxGeometry width="50" height="50" relative="1" as="geometry">
            <mxPoint x="2720" y="600.0000000000002" as="sourcePoint" />
            <mxPoint x="2680" y="600.0000000000002" as="targetPoint" />
          </mxGeometry>
        </mxCell>
        <mxCell id="VwapOLV4gGoB3jgHGufy-168" value="MEM_EXT" style="rounded=0;whiteSpace=wrap;html=1;" parent="1" vertex="1">
          <mxGeometry x="3080" y="720" width="200" height="120" as="geometry" />
        </mxCell>
        <mxCell id="VwapOLV4gGoB3jgHGufy-169" value="" style="endArrow=none;html=1;" parent="1" edge="1">
          <mxGeometry width="50" height="50" relative="1" as="geometry">
            <mxPoint x="3080" y="760" as="sourcePoint" />
            <mxPoint x="3040" y="760" as="targetPoint" />
          </mxGeometry>
        </mxCell>
        <mxCell id="VwapOLV4gGoB3jgHGufy-171" value="" style="endArrow=none;html=1;" parent="1" edge="1">
          <mxGeometry width="50" height="50" relative="1" as="geometry">
            <mxPoint x="3080" y="800" as="sourcePoint" />
            <mxPoint x="3040" y="800" as="targetPoint" />
          </mxGeometry>
        </mxCell>
        <mxCell id="VwapOLV4gGoB3jgHGufy-172" value="" style="endArrow=none;html=1;" parent="1" edge="1">
          <mxGeometry width="50" height="50" relative="1" as="geometry">
            <mxPoint x="3320" y="759.66" as="sourcePoint" />
            <mxPoint x="3280" y="759.66" as="targetPoint" />
          </mxGeometry>
        </mxCell>
        <mxCell id="VwapOLV4gGoB3jgHGufy-173" value="WB" style="rounded=0;whiteSpace=wrap;html=1;" parent="1" vertex="1">
          <mxGeometry x="3600" y="40" width="600" height="520" as="geometry" />
        </mxCell>
        <mxCell id="VwapOLV4gGoB3jgHGufy-174" value="" style="endArrow=none;html=1;" parent="1" edge="1">
          <mxGeometry width="50" height="50" relative="1" as="geometry">
            <mxPoint x="4240" y="119.83000000000015" as="sourcePoint" />
            <mxPoint x="4200" y="119.83000000000015" as="targetPoint" />
          </mxGeometry>
        </mxCell>
        <mxCell id="VwapOLV4gGoB3jgHGufy-175" value="" style="endArrow=none;html=1;" parent="1" edge="1">
          <mxGeometry width="50" height="50" relative="1" as="geometry">
            <mxPoint x="4240" y="79.83000000000015" as="sourcePoint" />
            <mxPoint x="4200" y="79.83000000000015" as="targetPoint" />
          </mxGeometry>
        </mxCell>
        <mxCell id="VwapOLV4gGoB3jgHGufy-176" value="" style="endArrow=none;html=1;" parent="1" edge="1">
          <mxGeometry width="50" height="50" relative="1" as="geometry">
            <mxPoint x="4240" y="159.83000000000015" as="sourcePoint" />
            <mxPoint x="4200" y="159.83000000000015" as="targetPoint" />
          </mxGeometry>
        </mxCell>
        <mxCell id="VwapOLV4gGoB3jgHGufy-183" value="" style="endArrow=none;html=1;" parent="1" edge="1">
          <mxGeometry width="50" height="50" relative="1" as="geometry">
            <mxPoint x="3600" y="119.71000000000004" as="sourcePoint" />
            <mxPoint x="3560" y="119.71000000000004" as="targetPoint" />
          </mxGeometry>
        </mxCell>
        <mxCell id="VwapOLV4gGoB3jgHGufy-184" value="" style="endArrow=none;html=1;" parent="1" edge="1">
          <mxGeometry width="50" height="50" relative="1" as="geometry">
            <mxPoint x="3600" y="79.71000000000026" as="sourcePoint" />
            <mxPoint x="3560" y="79.71000000000026" as="targetPoint" />
          </mxGeometry>
        </mxCell>
        <mxCell id="VwapOLV4gGoB3jgHGufy-185" value="" style="endArrow=none;html=1;" parent="1" edge="1">
          <mxGeometry width="50" height="50" relative="1" as="geometry">
            <mxPoint x="3600" y="159.71000000000004" as="sourcePoint" />
            <mxPoint x="3560" y="159.71000000000004" as="targetPoint" />
          </mxGeometry>
        </mxCell>
        <mxCell id="VwapOLV4gGoB3jgHGufy-186" value="" style="endArrow=none;html=1;" parent="1" edge="1">
          <mxGeometry width="50" height="50" relative="1" as="geometry">
            <mxPoint x="3600" y="199.71000000000004" as="sourcePoint" />
            <mxPoint x="3560" y="199.71000000000004" as="targetPoint" />
          </mxGeometry>
        </mxCell>
        <mxCell id="VwapOLV4gGoB3jgHGufy-187" value="" style="endArrow=none;html=1;" parent="1" edge="1">
          <mxGeometry width="50" height="50" relative="1" as="geometry">
            <mxPoint x="3600" y="239.71000000000004" as="sourcePoint" />
            <mxPoint x="3560" y="239.71000000000004" as="targetPoint" />
          </mxGeometry>
        </mxCell>
        <mxCell id="VwapOLV4gGoB3jgHGufy-188" value="" style="endArrow=none;html=1;" parent="1" edge="1">
          <mxGeometry width="50" height="50" relative="1" as="geometry">
            <mxPoint x="3600" y="279.71000000000004" as="sourcePoint" />
            <mxPoint x="3560" y="279.71000000000004" as="targetPoint" />
          </mxGeometry>
        </mxCell>
        <mxCell id="VwapOLV4gGoB3jgHGufy-189" value="" style="endArrow=none;html=1;" parent="1" edge="1">
          <mxGeometry width="50" height="50" relative="1" as="geometry">
            <mxPoint x="3600" y="319.4200000000001" as="sourcePoint" />
            <mxPoint x="3560" y="319.4200000000001" as="targetPoint" />
          </mxGeometry>
        </mxCell>
        <mxCell id="VwapOLV4gGoB3jgHGufy-190" value="" style="endArrow=none;html=1;" parent="1" edge="1">
          <mxGeometry width="50" height="50" relative="1" as="geometry">
            <mxPoint x="3600" y="359.71000000000004" as="sourcePoint" />
            <mxPoint x="3560" y="359.71000000000004" as="targetPoint" />
          </mxGeometry>
        </mxCell>
        <mxCell id="VwapOLV4gGoB3jgHGufy-191" value="" style="endArrow=none;html=1;" parent="1" edge="1">
          <mxGeometry width="50" height="50" relative="1" as="geometry">
            <mxPoint x="3600" y="399.71000000000026" as="sourcePoint" />
            <mxPoint x="3560" y="399.71000000000026" as="targetPoint" />
          </mxGeometry>
        </mxCell>
        <mxCell id="VwapOLV4gGoB3jgHGufy-192" value="" style="endArrow=none;html=1;" parent="1" edge="1">
          <mxGeometry width="50" height="50" relative="1" as="geometry">
            <mxPoint x="3600" y="439.71000000000026" as="sourcePoint" />
            <mxPoint x="3560" y="439.71000000000026" as="targetPoint" />
          </mxGeometry>
        </mxCell>
        <mxCell id="VwapOLV4gGoB3jgHGufy-193" value="" style="endArrow=none;html=1;" parent="1" edge="1">
          <mxGeometry width="50" height="50" relative="1" as="geometry">
            <mxPoint x="3600" y="479.71000000000026" as="sourcePoint" />
            <mxPoint x="3560" y="479.71000000000026" as="targetPoint" />
          </mxGeometry>
        </mxCell>
        <mxCell id="VwapOLV4gGoB3jgHGufy-194" value="" style="endArrow=none;html=1;" parent="1" edge="1">
          <mxGeometry width="50" height="50" relative="1" as="geometry">
            <mxPoint x="3600" y="519.4200000000005" as="sourcePoint" />
            <mxPoint x="3560" y="519.4200000000005" as="targetPoint" />
          </mxGeometry>
        </mxCell>
        <mxCell id="VwapOLV4gGoB3jgHGufy-197" value="HILO" style="rounded=0;whiteSpace=wrap;html=1;" parent="1" vertex="1">
          <mxGeometry x="3640" y="640" width="160" height="120" as="geometry" />
        </mxCell>
        <mxCell id="VwapOLV4gGoB3jgHGufy-198" value="" style="endArrow=none;html=1;" parent="1" edge="1">
          <mxGeometry width="50" height="50" relative="1" as="geometry">
            <mxPoint x="3640" y="680" as="sourcePoint" />
            <mxPoint x="3600" y="680" as="targetPoint" />
          </mxGeometry>
        </mxCell>
        <mxCell id="VwapOLV4gGoB3jgHGufy-199" value="" style="endArrow=none;html=1;" parent="1" edge="1">
          <mxGeometry width="50" height="50" relative="1" as="geometry">
            <mxPoint x="3640" y="720" as="sourcePoint" />
            <mxPoint x="3600" y="720" as="targetPoint" />
          </mxGeometry>
        </mxCell>
        <mxCell id="VwapOLV4gGoB3jgHGufy-200" value="" style="endArrow=none;html=1;" parent="1" edge="1">
          <mxGeometry width="50" height="50" relative="1" as="geometry">
            <mxPoint x="3840" y="680" as="sourcePoint" />
            <mxPoint x="3800" y="680" as="targetPoint" />
          </mxGeometry>
        </mxCell>
        <mxCell id="VwapOLV4gGoB3jgHGufy-201" value="" style="endArrow=none;html=1;" parent="1" edge="1">
          <mxGeometry width="50" height="50" relative="1" as="geometry">
            <mxPoint x="3840" y="720" as="sourcePoint" />
            <mxPoint x="3800" y="720" as="targetPoint" />
          </mxGeometry>
        </mxCell>
        <mxCell id="WkKxk6tx6vlq3RW7ApQD-1" value="pc_" style="text;html=1;strokeColor=none;fillColor=none;align=center;verticalAlign=middle;whiteSpace=wrap;rounded=0;" parent="1" vertex="1">
          <mxGeometry x="214" y="1189" width="40" height="20" as="geometry" />
        </mxCell>
        <mxCell id="WkKxk6tx6vlq3RW7ApQD-2" value="_pc" style="text;html=1;strokeColor=none;fillColor=none;align=center;verticalAlign=middle;whiteSpace=wrap;rounded=0;" parent="1" vertex="1">
          <mxGeometry x="214" y="1089" width="40" height="20" as="geometry" />
        </mxCell>
        <mxCell id="WkKxk6tx6vlq3RW7ApQD-3" value="_branch" style="text;html=1;strokeColor=none;fillColor=none;align=center;verticalAlign=middle;whiteSpace=wrap;rounded=0;" parent="1" vertex="1">
          <mxGeometry x="134" y="1109" width="46" height="20" as="geometry" />
        </mxCell>
        <mxCell id="WkKxk6tx6vlq3RW7ApQD-4" value="_branch_target" style="text;html=1;strokeColor=none;fillColor=none;align=center;verticalAlign=middle;whiteSpace=wrap;rounded=0;" parent="1" vertex="1">
          <mxGeometry x="134" y="1139" width="86" height="20" as="geometry" />
        </mxCell>
        <mxCell id="WkKxk6tx6vlq3RW7ApQD-5" value="_stall" style="text;html=1;strokeColor=none;fillColor=none;align=center;verticalAlign=middle;whiteSpace=wrap;rounded=0;" parent="1" vertex="1">
          <mxGeometry x="134" y="1169" width="36" height="20" as="geometry" />
        </mxCell>
        <mxCell id="WkKxk6tx6vlq3RW7ApQD-6" value="_pc" style="text;html=1;strokeColor=none;fillColor=none;align=center;verticalAlign=middle;whiteSpace=wrap;rounded=0;" parent="1" vertex="1">
          <mxGeometry x="214" y="1329" width="40" height="20" as="geometry" />
        </mxCell>
        <mxCell id="WkKxk6tx6vlq3RW7ApQD-7" value="inst_" style="text;html=1;strokeColor=none;fillColor=none;align=center;verticalAlign=middle;whiteSpace=wrap;rounded=0;" parent="1" vertex="1">
          <mxGeometry x="214" y="1389" width="40" height="20" as="geometry" />
        </mxCell>
        <mxCell id="WkKxk6tx6vlq3RW7ApQD-8" value="_op1" style="text;html=1;strokeColor=none;fillColor=none;align=center;verticalAlign=middle;whiteSpace=wrap;rounded=0;" parent="1" vertex="1">
          <mxGeometry x="840" y="990" width="40" height="20" as="geometry" />
        </mxCell>
        <mxCell id="WkKxk6tx6vlq3RW7ApQD-9" value="_func" style="text;html=1;strokeColor=none;fillColor=none;align=center;verticalAlign=middle;whiteSpace=wrap;rounded=0;" parent="1" vertex="1">
          <mxGeometry x="840" y="1029" width="40" height="20" as="geometry" />
        </mxCell>
        <mxCell id="WkKxk6tx6vlq3RW7ApQD-10" value="_op2" style="text;html=1;strokeColor=none;fillColor=none;align=center;verticalAlign=middle;whiteSpace=wrap;rounded=0;" parent="1" vertex="1">
          <mxGeometry x="840" y="1069" width="40" height="20" as="geometry" />
        </mxCell>
        <mxCell id="WkKxk6tx6vlq3RW7ApQD-12" value="sel_rdata_" style="text;html=1;strokeColor=none;fillColor=none;align=center;verticalAlign=middle;whiteSpace=wrap;rounded=0;" parent="1" vertex="1">
          <mxGeometry x="980" y="990" width="60" height="20" as="geometry" />
        </mxCell>
        <mxCell id="WkKxk6tx6vlq3RW7ApQD-13" value="sel_reg_wdata_" style="text;html=1;strokeColor=none;fillColor=none;align=center;verticalAlign=middle;whiteSpace=wrap;rounded=0;" parent="1" vertex="1">
          <mxGeometry x="950" y="1029" width="90" height="20" as="geometry" />
        </mxCell>
        <mxCell id="WkKxk6tx6vlq3RW7ApQD-14" value="sel_reg_waddr_" style="text;html=1;strokeColor=none;fillColor=none;align=center;verticalAlign=middle;whiteSpace=wrap;rounded=0;" parent="1" vertex="1">
          <mxGeometry x="950" y="1069" width="90" height="20" as="geometry" />
        </mxCell>
        <mxCell id="WkKxk6tx6vlq3RW7ApQD-15" value="id_extend_" style="text;html=1;strokeColor=none;fillColor=none;align=center;verticalAlign=middle;whiteSpace=wrap;rounded=0;" parent="1" vertex="1">
          <mxGeometry x="980" y="1109" width="60" height="20" as="geometry" />
        </mxCell>
        <mxCell id="WkKxk6tx6vlq3RW7ApQD-16" value="alu_op_" style="text;html=1;strokeColor=none;fillColor=none;align=center;verticalAlign=middle;whiteSpace=wrap;rounded=0;" parent="1" vertex="1">
          <mxGeometry x="990" y="1149" width="50" height="20" as="geometry" />
        </mxCell>
        <mxCell id="WkKxk6tx6vlq3RW7ApQD-17" value="rf_we_" style="text;html=1;strokeColor=none;fillColor=none;align=center;verticalAlign=middle;whiteSpace=wrap;rounded=0;" parent="1" vertex="1">
          <mxGeometry x="1000" y="1189" width="40" height="20" as="geometry" />
        </mxCell>
        <mxCell id="WkKxk6tx6vlq3RW7ApQD-18" value="hilo_we_" style="text;html=1;strokeColor=none;fillColor=none;align=center;verticalAlign=middle;whiteSpace=wrap;rounded=0;" parent="1" vertex="1">
          <mxGeometry x="990" y="1230" width="50" height="20" as="geometry" />
        </mxCell>
        <mxCell id="WkKxk6tx6vlq3RW7ApQD-19" value="j_" style="text;html=1;strokeColor=none;fillColor=none;align=center;verticalAlign=middle;whiteSpace=wrap;rounded=0;" parent="1" vertex="1">
          <mxGeometry x="1030" y="1270" width="10" height="20" as="geometry" />
        </mxCell>
        <mxCell id="WkKxk6tx6vlq3RW7ApQD-20" value="b_" style="text;html=1;strokeColor=none;fillColor=none;align=center;verticalAlign=middle;whiteSpace=wrap;rounded=0;" parent="1" vertex="1">
          <mxGeometry x="1020" y="1309" width="20" height="20" as="geometry" />
        </mxCell>
        <mxCell id="WkKxk6tx6vlq3RW7ApQD-21" value="div_" style="text;html=1;strokeColor=none;fillColor=none;align=center;verticalAlign=middle;whiteSpace=wrap;rounded=0;" parent="1" vertex="1">
          <mxGeometry x="1010" y="1349" width="30" height="20" as="geometry" />
        </mxCell>
        <mxCell id="WkKxk6tx6vlq3RW7ApQD-22" value="mult_" style="text;html=1;strokeColor=none;fillColor=none;align=center;verticalAlign=middle;whiteSpace=wrap;rounded=0;" parent="1" vertex="1">
          <mxGeometry x="1010" y="1389" width="30" height="20" as="geometry" />
        </mxCell>
        <mxCell id="WkKxk6tx6vlq3RW7ApQD-23" value="mem_extern_" style="text;html=1;strokeColor=none;fillColor=none;align=center;verticalAlign=middle;whiteSpace=wrap;rounded=0;" parent="1" vertex="1">
          <mxGeometry x="960" y="1430" width="80" height="20" as="geometry" />
        </mxCell>
        <mxCell id="WkKxk6tx6vlq3RW7ApQD-24" value="sel_dm_wdata_" style="text;html=1;strokeColor=none;fillColor=none;align=center;verticalAlign=middle;whiteSpace=wrap;rounded=0;" parent="1" vertex="1">
          <mxGeometry x="950" y="1470" width="90" height="20" as="geometry" />
        </mxCell>
        <mxCell id="WkKxk6tx6vlq3RW7ApQD-25" value="_sel_waddr" style="text;html=1;strokeColor=none;fillColor=none;align=center;verticalAlign=middle;whiteSpace=wrap;rounded=0;" parent="1" vertex="1">
          <mxGeometry x="1320" y="1069" width="70" height="20" as="geometry" />
        </mxCell>
        <mxCell id="WkKxk6tx6vlq3RW7ApQD-26" value="_constant_31" style="text;html=1;strokeColor=none;fillColor=none;align=center;verticalAlign=middle;whiteSpace=wrap;rounded=0;" parent="1" vertex="1">
          <mxGeometry x="1320" y="1109" width="80" height="20" as="geometry" />
        </mxCell>
        <mxCell id="WkKxk6tx6vlq3RW7ApQD-27" value="_rt" style="text;html=1;strokeColor=none;fillColor=none;align=center;verticalAlign=middle;whiteSpace=wrap;rounded=0;" parent="1" vertex="1">
          <mxGeometry x="1320" y="1189" width="20" height="20" as="geometry" />
        </mxCell>
        <mxCell id="WkKxk6tx6vlq3RW7ApQD-28" value="_imm26" style="text;html=1;strokeColor=none;fillColor=none;align=center;verticalAlign=middle;whiteSpace=wrap;rounded=0;" parent="1" vertex="1">
          <mxGeometry x="1320" y="1389" width="50" height="20" as="geometry" />
        </mxCell>
        <mxCell id="WkKxk6tx6vlq3RW7ApQD-29" value="reg_waddr_" style="text;html=1;strokeColor=none;fillColor=none;align=center;verticalAlign=middle;whiteSpace=wrap;rounded=0;" parent="1" vertex="1">
          <mxGeometry x="1410" y="1069" width="70" height="20" as="geometry" />
        </mxCell>
        <mxCell id="WkKxk6tx6vlq3RW7ApQD-30" value="_rd" style="text;html=1;strokeColor=none;fillColor=none;align=center;verticalAlign=middle;whiteSpace=wrap;rounded=0;" parent="1" vertex="1">
          <mxGeometry x="1320" y="1230" width="20" height="20" as="geometry" />
        </mxCell>
        <mxCell id="WkKxk6tx6vlq3RW7ApQD-31" value="_pc_high4" style="text;html=1;strokeColor=none;fillColor=none;align=center;verticalAlign=middle;whiteSpace=wrap;rounded=0;" parent="1" vertex="1">
          <mxGeometry x="1320" y="1470" width="60" height="20" as="geometry" />
        </mxCell>
        <mxCell id="WkKxk6tx6vlq3RW7ApQD-32" value="_id_extern" style="text;html=1;strokeColor=none;fillColor=none;align=center;verticalAlign=middle;whiteSpace=wrap;rounded=0;" parent="1" vertex="1">
          <mxGeometry x="1320" y="1510" width="60" height="20" as="geometry" />
        </mxCell>
        <mxCell id="WkKxk6tx6vlq3RW7ApQD-33" value="imm32_" style="text;html=1;strokeColor=none;fillColor=none;align=center;verticalAlign=middle;whiteSpace=wrap;rounded=0;" parent="1" vertex="1">
          <mxGeometry x="1430" y="1389" width="50" height="20" as="geometry" />
        </mxCell>
        <mxCell id="WkKxk6tx6vlq3RW7ApQD-34" value="_imm32" style="text;html=1;strokeColor=none;fillColor=none;align=center;verticalAlign=middle;whiteSpace=wrap;rounded=0;" parent="1" vertex="1">
          <mxGeometry x="880" y="1590" width="50" height="20" as="geometry" />
        </mxCell>
        <mxCell id="WkKxk6tx6vlq3RW7ApQD-35" value="_constant_16" style="text;html=1;strokeColor=none;fillColor=none;align=center;verticalAlign=middle;whiteSpace=wrap;rounded=0;" parent="1" vertex="1">
          <mxGeometry x="880" y="1630" width="80" height="20" as="geometry" />
        </mxCell>
        <mxCell id="WkKxk6tx6vlq3RW7ApQD-36" value="_constant_0" style="text;html=1;strokeColor=none;fillColor=none;align=center;verticalAlign=middle;whiteSpace=wrap;rounded=0;" parent="1" vertex="1">
          <mxGeometry x="880" y="1670" width="70" height="20" as="geometry" />
        </mxCell>
        <mxCell id="WkKxk6tx6vlq3RW7ApQD-37" value="_rs_data" style="text;html=1;strokeColor=none;fillColor=none;align=center;verticalAlign=middle;whiteSpace=wrap;rounded=0;" parent="1" vertex="1">
          <mxGeometry x="880" y="1754" width="50" height="20" as="geometry" />
        </mxCell>
        <mxCell id="WkKxk6tx6vlq3RW7ApQD-38" value="_rt_data" style="text;html=1;strokeColor=none;fillColor=none;align=center;verticalAlign=middle;whiteSpace=wrap;rounded=0;" parent="1" vertex="1">
          <mxGeometry x="880" y="1790" width="50" height="20" as="geometry" />
        </mxCell>
        <mxCell id="WkKxk6tx6vlq3RW7ApQD-39" value="_sel_rdata" style="text;html=1;strokeColor=none;fillColor=none;align=center;verticalAlign=middle;whiteSpace=wrap;rounded=0;" parent="1" vertex="1">
          <mxGeometry x="880" y="1830" width="60" height="20" as="geometry" />
        </mxCell>
        <mxCell id="WkKxk6tx6vlq3RW7ApQD-40" value="data1_" style="text;html=1;strokeColor=none;fillColor=none;align=center;verticalAlign=middle;whiteSpace=wrap;rounded=0;" parent="1" vertex="1">
          <mxGeometry x="1000" y="1590" width="40" height="20" as="geometry" />
        </mxCell>
        <mxCell id="WkKxk6tx6vlq3RW7ApQD-41" value="data2_" style="text;html=1;strokeColor=none;fillColor=none;align=center;verticalAlign=middle;whiteSpace=wrap;rounded=0;" parent="1" vertex="1">
          <mxGeometry x="1000" y="1630" width="40" height="20" as="geometry" />
        </mxCell>
        <mxCell id="WkKxk6tx6vlq3RW7ApQD-42" value="branch_target_offset_" style="text;html=1;strokeColor=none;fillColor=none;align=center;verticalAlign=middle;whiteSpace=wrap;rounded=0;" parent="1" vertex="1">
          <mxGeometry x="960" y="1670" width="120" height="20" as="geometry" />
        </mxCell>
        <mxCell id="CbgoV2XO1GhqbBKaRWcN-1" value="ALU" style="rounded=0;whiteSpace=wrap;html=1;" vertex="1" parent="1">
          <mxGeometry x="1740" y="850" width="160" height="160" as="geometry" />
        </mxCell>
        <mxCell id="CbgoV2XO1GhqbBKaRWcN-2" value="" style="endArrow=none;html=1;" edge="1" parent="1">
          <mxGeometry width="50" height="50" relative="1" as="geometry">
            <mxPoint x="1740" y="890" as="sourcePoint" />
            <mxPoint x="1700" y="890" as="targetPoint" />
          </mxGeometry>
        </mxCell>
        <mxCell id="CbgoV2XO1GhqbBKaRWcN-3" value="" style="endArrow=none;html=1;" edge="1" parent="1">
          <mxGeometry width="50" height="50" relative="1" as="geometry">
            <mxPoint x="1740" y="969.5800000000004" as="sourcePoint" />
            <mxPoint x="1700" y="969.5800000000004" as="targetPoint" />
          </mxGeometry>
        </mxCell>
        <mxCell id="CbgoV2XO1GhqbBKaRWcN-4" value="" style="endArrow=none;html=1;" edge="1" parent="1">
          <mxGeometry width="50" height="50" relative="1" as="geometry">
            <mxPoint x="1740" y="930" as="sourcePoint" />
            <mxPoint x="1700" y="930" as="targetPoint" />
          </mxGeometry>
        </mxCell>
        <mxCell id="CbgoV2XO1GhqbBKaRWcN-5" value="" style="endArrow=none;html=1;" edge="1" parent="1">
          <mxGeometry width="50" height="50" relative="1" as="geometry">
            <mxPoint x="1940" y="890" as="sourcePoint" />
            <mxPoint x="1900" y="890" as="targetPoint" />
          </mxGeometry>
        </mxCell>
        <mxCell id="CbgoV2XO1GhqbBKaRWcN-7" value="_data1" style="text;html=1;strokeColor=none;fillColor=none;align=center;verticalAlign=middle;whiteSpace=wrap;rounded=0;" vertex="1" parent="1">
          <mxGeometry x="2161" y="870" width="40" height="20" as="geometry" />
        </mxCell>
        <mxCell id="CbgoV2XO1GhqbBKaRWcN-8" value="_data2" style="text;html=1;strokeColor=none;fillColor=none;align=center;verticalAlign=middle;whiteSpace=wrap;rounded=0;" vertex="1" parent="1">
          <mxGeometry x="2161" y="910" width="40" height="20" as="geometry" />
        </mxCell>
        <mxCell id="CbgoV2XO1GhqbBKaRWcN-9" value="_alu_op" style="text;html=1;strokeColor=none;fillColor=none;align=center;verticalAlign=middle;whiteSpace=wrap;rounded=0;" vertex="1" parent="1">
          <mxGeometry x="1740" y="960" width="50" height="20" as="geometry" />
        </mxCell>
        <mxCell id="CbgoV2XO1GhqbBKaRWcN-10" value="alu_res_" style="text;html=1;strokeColor=none;fillColor=none;align=center;verticalAlign=middle;whiteSpace=wrap;rounded=0;" vertex="1" parent="1">
          <mxGeometry x="1850" y="880" width="50" height="20" as="geometry" />
        </mxCell>
        <mxCell id="CbgoV2XO1GhqbBKaRWcN-11" value="_data1" style="text;html=1;strokeColor=none;fillColor=none;align=center;verticalAlign=middle;whiteSpace=wrap;rounded=0;" vertex="1" parent="1">
          <mxGeometry x="1740" y="880" width="40" height="20" as="geometry" />
        </mxCell>
        <mxCell id="CbgoV2XO1GhqbBKaRWcN-12" value="_data2" style="text;html=1;strokeColor=none;fillColor=none;align=center;verticalAlign=middle;whiteSpace=wrap;rounded=0;" vertex="1" parent="1">
          <mxGeometry x="1740" y="920" width="40" height="20" as="geometry" />
        </mxCell>
        <mxCell id="CbgoV2XO1GhqbBKaRWcN-13" value="_div" style="text;html=1;strokeColor=none;fillColor=none;align=center;verticalAlign=middle;whiteSpace=wrap;rounded=0;" vertex="1" parent="1">
          <mxGeometry x="2161" y="950" width="29" height="20" as="geometry" />
        </mxCell>
        <mxCell id="CbgoV2XO1GhqbBKaRWcN-14" value="div_stall_" style="text;html=1;strokeColor=none;fillColor=none;align=center;verticalAlign=middle;whiteSpace=wrap;rounded=0;" vertex="1" parent="1">
          <mxGeometry x="2270" y="870" width="51" height="20" as="geometry" />
        </mxCell>
        <mxCell id="CbgoV2XO1GhqbBKaRWcN-15" value="div_res_" style="text;html=1;strokeColor=none;fillColor=none;align=center;verticalAlign=middle;whiteSpace=wrap;rounded=0;" vertex="1" parent="1">
          <mxGeometry x="2270" y="910" width="51" height="20" as="geometry" />
        </mxCell>
        <mxCell id="CbgoV2XO1GhqbBKaRWcN-16" value="_data1" style="text;html=1;strokeColor=none;fillColor=none;align=center;verticalAlign=middle;whiteSpace=wrap;rounded=0;" vertex="1" parent="1">
          <mxGeometry x="2161" y="1109" width="40" height="20" as="geometry" />
        </mxCell>
        <mxCell id="CbgoV2XO1GhqbBKaRWcN-17" value="_data2" style="text;html=1;strokeColor=none;fillColor=none;align=center;verticalAlign=middle;whiteSpace=wrap;rounded=0;" vertex="1" parent="1">
          <mxGeometry x="2161" y="1149" width="40" height="20" as="geometry" />
        </mxCell>
        <mxCell id="CbgoV2XO1GhqbBKaRWcN-18" value="_mult" style="text;html=1;strokeColor=none;fillColor=none;align=center;verticalAlign=middle;whiteSpace=wrap;rounded=0;" vertex="1" parent="1">
          <mxGeometry x="2161" y="1189" width="39" height="20" as="geometry" />
        </mxCell>
        <mxCell id="CbgoV2XO1GhqbBKaRWcN-19" value="mult_stall_" style="text;html=1;strokeColor=none;fillColor=none;align=center;verticalAlign=middle;whiteSpace=wrap;rounded=0;" vertex="1" parent="1">
          <mxGeometry x="2261" y="1109" width="60" height="20" as="geometry" />
        </mxCell>
        <mxCell id="CbgoV2XO1GhqbBKaRWcN-20" value="mult_res_" style="text;html=1;strokeColor=none;fillColor=none;align=center;verticalAlign=middle;whiteSpace=wrap;rounded=0;" vertex="1" parent="1">
          <mxGeometry x="2261" y="1149" width="60" height="20" as="geometry" />
        </mxCell>
        <mxCell id="CbgoV2XO1GhqbBKaRWcN-21" value="_b" style="text;html=1;strokeColor=none;fillColor=none;align=center;verticalAlign=middle;whiteSpace=wrap;rounded=0;" vertex="1" parent="1">
          <mxGeometry x="1800" y="1230" width="20" height="20" as="geometry" />
        </mxCell>
        <mxCell id="CbgoV2XO1GhqbBKaRWcN-22" value="_b_branch" style="text;html=1;strokeColor=none;fillColor=none;align=center;verticalAlign=middle;whiteSpace=wrap;rounded=0;" vertex="1" parent="1">
          <mxGeometry x="1800" y="1270" width="60" height="20" as="geometry" />
        </mxCell>
        <mxCell id="CbgoV2XO1GhqbBKaRWcN-23" value="_b_branch_offset" style="text;html=1;strokeColor=none;fillColor=none;align=center;verticalAlign=middle;whiteSpace=wrap;rounded=0;" vertex="1" parent="1">
          <mxGeometry x="1800" y="1309" width="100" height="20" as="geometry" />
        </mxCell>
        <mxCell id="CbgoV2XO1GhqbBKaRWcN-24" value="_pc" style="text;html=1;strokeColor=none;fillColor=none;align=center;verticalAlign=middle;whiteSpace=wrap;rounded=0;" vertex="1" parent="1">
          <mxGeometry x="1800" y="1349" width="20" height="20" as="geometry" />
        </mxCell>
        <mxCell id="CbgoV2XO1GhqbBKaRWcN-25" value="b_branch_stall_" style="text;html=1;strokeColor=none;fillColor=none;align=center;verticalAlign=middle;whiteSpace=wrap;rounded=0;" vertex="1" parent="1">
          <mxGeometry x="1910" y="1230" width="90" height="20" as="geometry" />
        </mxCell>
        <mxCell id="CbgoV2XO1GhqbBKaRWcN-26" value="b_branch_target_" style="text;html=1;strokeColor=none;fillColor=none;align=center;verticalAlign=middle;whiteSpace=wrap;rounded=0;" vertex="1" parent="1">
          <mxGeometry x="1900" y="1270" width="100" height="20" as="geometry" />
        </mxCell>
        <mxCell id="CbgoV2XO1GhqbBKaRWcN-27" value="link_return_addr_" style="text;html=1;strokeColor=none;fillColor=none;align=center;verticalAlign=middle;whiteSpace=wrap;rounded=0;" vertex="1" parent="1">
          <mxGeometry x="1900" y="1349" width="100" height="20" as="geometry" />
        </mxCell>
        <mxCell id="CbgoV2XO1GhqbBKaRWcN-28" value="_raddr" style="text;html=1;strokeColor=none;fillColor=none;align=center;verticalAlign=middle;whiteSpace=wrap;rounded=0;" vertex="1" parent="1">
          <mxGeometry x="2720" y="750" width="40" height="20" as="geometry" />
        </mxCell>
        <mxCell id="CbgoV2XO1GhqbBKaRWcN-29" value="rdata_" style="text;html=1;strokeColor=none;fillColor=none;align=center;verticalAlign=middle;whiteSpace=wrap;rounded=0;" vertex="1" parent="1">
          <mxGeometry x="2840" y="750" width="40" height="20" as="geometry" />
        </mxCell>
        <mxCell id="CbgoV2XO1GhqbBKaRWcN-30" value="_dm_wdata" style="text;html=1;strokeColor=none;fillColor=none;align=center;verticalAlign=middle;whiteSpace=wrap;rounded=0;" vertex="1" parent="1">
          <mxGeometry x="2720" y="790" width="70" height="20" as="geometry" />
        </mxCell>
        <mxCell id="CbgoV2XO1GhqbBKaRWcN-31" value="_sel_dm_wdata" style="text;html=1;strokeColor=none;fillColor=none;align=center;verticalAlign=middle;whiteSpace=wrap;rounded=0;" vertex="1" parent="1">
          <mxGeometry x="2720" y="830" width="90" height="20" as="geometry" />
        </mxCell>
        <mxCell id="CbgoV2XO1GhqbBKaRWcN-32" value="_mem_extern" style="text;html=1;strokeColor=none;fillColor=none;align=center;verticalAlign=middle;whiteSpace=wrap;rounded=0;" vertex="1" parent="1">
          <mxGeometry x="3080" y="750" width="80" height="20" as="geometry" />
        </mxCell>
        <mxCell id="CbgoV2XO1GhqbBKaRWcN-33" value="_dm_rdata" style="text;html=1;strokeColor=none;fillColor=none;align=center;verticalAlign=middle;whiteSpace=wrap;rounded=0;" vertex="1" parent="1">
          <mxGeometry x="3080" y="790" width="60" height="20" as="geometry" />
        </mxCell>
        <mxCell id="CbgoV2XO1GhqbBKaRWcN-34" value="dm_reg_wdata_" style="text;html=1;strokeColor=none;fillColor=none;align=center;verticalAlign=middle;whiteSpace=wrap;rounded=0;" vertex="1" parent="1">
          <mxGeometry x="3190" y="750" width="90" height="20" as="geometry" />
        </mxCell>
        <mxCell id="CbgoV2XO1GhqbBKaRWcN-35" value="_hi" style="text;html=1;strokeColor=none;fillColor=none;align=center;verticalAlign=middle;whiteSpace=wrap;rounded=0;" vertex="1" parent="1">
          <mxGeometry x="3640" y="670" width="20" height="20" as="geometry" />
        </mxCell>
        <mxCell id="CbgoV2XO1GhqbBKaRWcN-36" value="_lo" style="text;html=1;strokeColor=none;fillColor=none;align=center;verticalAlign=middle;whiteSpace=wrap;rounded=0;" vertex="1" parent="1">
          <mxGeometry x="3640" y="710" width="20" height="20" as="geometry" />
        </mxCell>
        <mxCell id="CbgoV2XO1GhqbBKaRWcN-37" value="hi_" style="text;html=1;strokeColor=none;fillColor=none;align=center;verticalAlign=middle;whiteSpace=wrap;rounded=0;" vertex="1" parent="1">
          <mxGeometry x="3780" y="670" width="20" height="20" as="geometry" />
        </mxCell>
        <mxCell id="CbgoV2XO1GhqbBKaRWcN-38" value="lo_" style="text;html=1;strokeColor=none;fillColor=none;align=center;verticalAlign=middle;whiteSpace=wrap;rounded=0;" vertex="1" parent="1">
          <mxGeometry x="3780" y="710" width="20" height="20" as="geometry" />
        </mxCell>
      </root>
    </mxGraphModel>
  </diagram>
</mxfile>
